<?xml version="1.0" encoding="UTF-8"?><svg id="Layer_1" xmlns="http://www.w3.org/2000/svg" viewBox="0 0 48 48"><defs><style>.cls-1{fill:#fff;}.cls-2{fill:#96c4ed;}.cls-3{fill:#d6e8fa;}.cls-4{fill:#afd2f2;}.cls-5{fill:#4497dc;}</style></defs><rect class="cls-4" x="8.14" width="31.72" height="48" rx="1.89" ry="1.89"/><path class="cls-3" d="M10.97,10.89c0,.78,.64,1.41,1.41,1.41h23.24c.78,0,1.41-.64,1.41-1.41V5.62l-26.07,3.87v1.4Z"/><path class="cls-1" d="M35.96,2.88H12.04c-.61,.16-1.07,.71-1.07,1.37v5.25l26.07-3.87v-1.37c0-.66-.46-1.21-1.07-1.37Z"/><g><rect class="cls-2" x="10.97" y="16.8" width="5.66" height="5.66" rx=".94" ry=".94"/><rect class="cls-2" x="17.77" y="16.8" width="5.66" height="5.66" rx=".94" ry=".94"/><rect class="cls-2" x="24.57" y="16.8" width="5.66" height="5.66" rx=".94" ry=".94"/><rect class="cls-2" x="10.97" y="24.53" width="5.66" height="5.66" rx=".94" ry=".94"/><rect class="cls-2" x="17.77" y="24.53" width="5.66" height="5.66" rx=".94" ry=".94"/><rect class="cls-2" x="24.57" y="24.53" width="5.66" height="5.66" rx=".94" ry=".94"/><rect class="cls-2" x="31.38" y="24.53" width="5.66" height="5.66" rx=".94" ry=".94"/><rect class="cls-2" x="10.97" y="32.26" width="5.66" height="5.66" rx=".94" ry=".94"/><rect class="cls-2" x="17.77" y="32.26" width="5.66" height="5.66" rx=".94" ry=".94"/><rect class="cls-2" x="24.57" y="32.26" width="5.66" height="5.66" rx=".94" ry=".94"/><rect class="cls-2" x="31.38" y="32.26" width="5.66" height="5.66" rx=".94" ry=".94"/><rect class="cls-2" x="10.97" y="39.98" width="5.66" height="5.66" rx=".94" ry=".94"/><rect class="cls-2" x="17.77" y="39.98" width="5.66" height="5.66" rx=".94" ry=".94"/><rect class="cls-2" x="24.57" y="39.98" width="5.66" height="5.66" rx=".94" ry=".94"/><rect class="cls-2" x="31.38" y="39.98" width="5.66" height="5.66" rx=".94" ry=".94"/><rect class="cls-2" x="31.38" y="16.8" width="5.66" height="5.66" rx=".94" ry=".94"/></g><rect class="cls-3" x="10.97" y="13.97" width="26.07" height=".47"/><g><rect class="cls-1" x="10.97" y="31.79" width="5.66" height="5.66" rx=".94" ry=".94"/><rect class="cls-1" x="17.77" y="31.79" width="5.66" height="5.66" rx=".94" ry=".94"/><rect class="cls-1" x="10.97" y="24.06" width="5.66" height="5.66" rx=".94" ry=".94"/><rect class="cls-1" x="17.77" y="24.06" width="5.66" height="5.66" rx=".94" ry=".94"/><rect class="cls-1" x="10.97" y="16.33" width="5.66" height="5.66" rx=".94" ry=".94"/><rect class="cls-1" x="17.77" y="16.33" width="5.66" height="5.66" rx=".94" ry=".94"/><rect class="cls-1" x="24.57" y="16.33" width="5.66" height="5.66" rx=".94" ry=".94"/><rect class="cls-1" x="10.97" y="39.51" width="5.66" height="5.66" rx=".94" ry=".94"/><rect class="cls-1" x="17.77" y="39.51" width="5.66" height="5.66" rx=".94" ry=".94"/><rect class="cls-1" x="24.57" y="24.06" width="5.66" height="5.66" rx=".94" ry=".94"/><rect class="cls-1" x="24.57" y="31.79" width="5.66" height="5.66" rx=".94" ry=".94"/></g><g><rect class="cls-5" x="24.57" y="39.51" width="5.66" height="5.66" rx=".94" ry=".94"/><rect class="cls-5" x="31.38" y="39.51" width="5.66" height="5.66" rx=".94" ry=".94"/><rect class="cls-5" x="31.38" y="24.06" width="5.66" height="5.66" rx=".94" ry=".94"/><rect class="cls-5" x="31.38" y="31.79" width="5.66" height="5.66" rx=".94" ry=".94"/></g><rect class="cls-1" x="31.38" y="16.33" width="5.66" height="5.66" rx=".94" ry=".94"/></svg>