<?xml version="1.0" encoding="UTF-8"?><svg id="Layer_1" xmlns="http://www.w3.org/2000/svg" viewBox="0 0 48 48"><defs><style>.cls-1{fill:#fff;}.cls-2{fill:#d6e8fa;}.cls-3{fill:#61a7e2;}</style></defs><polygon class="cls-1" points="41.74 48 6.26 48 6.26 0 28.59 0 41.74 13.15 41.74 48"/><polygon class="cls-2" points="28.59 0 41.74 13.15 28.59 13.15 28.59 0"/><path class="cls-3" d="M21.37,41.41c-.58,0-1.14-.26-1.52-.71l-6.67-8.01c-.7-.84-.59-2.08,.25-2.78,.84-.7,2.08-.58,2.78,.25l4.86,5.84,10.52-18.21c.55-.94,1.75-1.27,2.7-.72,.94,.55,1.27,1.75,.72,2.7l-11.93,20.66c-.32,.56-.9,.92-1.54,.98-.06,0-.11,0-.17,0Z"/></svg>