<?xml version="1.0" encoding="UTF-8"?>
<svg width="1200pt" height="1200pt" version="1.1" viewBox="0 0 1200 1200" xmlns="http://www.w3.org/2000/svg">
 <path d="m642 560.4v-253.2c0-24-19.199-42-42-42-24 0-42 19.199-42 42v355.2c1.1992 24 19.199 43.199 42 43.199 9.6016 0 20.398-4.8008 28.801-13.199l177.6-176.4c16.801-16.801 16.801-44.398 0-60-16.801-16.801-44.398-16.801-60 0zm-42-500.4c-297.6 0-540 242.4-540 540s242.4 540 540 540 540-242.4 540-540-242.4-540-540-540zm0 966c-234 0-426-192-426-426s192-427.2 426-427.2 427.2 192 427.2 427.2c0 234-193.2 426-427.2 426z"/>
</svg>
