<?xml version="1.0" encoding="UTF-8"?>
<svg width="1200pt" height="1200pt" version="1.1" viewBox="0 0 1200 1200" xmlns="http://www.w3.org/2000/svg">
 <path d="m955.46 560.92v471.44c-0.039062 14.312-5.7422 28.023-15.859 38.145-10.117 10.121-23.824 15.828-38.137 15.875h-598.92c-14.309-0.046875-28.02-5.7539-38.137-15.875-10.117-10.121-15.816-23.832-15.859-38.145v-471.44c0.042969-14.309 5.7461-28.02 15.863-38.137 10.117-10.117 23.824-15.82 38.133-15.859h58.406v-120.65c0-63.934 25.398-125.25 70.602-170.45 45.207-45.207 106.52-70.605 170.45-70.605 63.934 0 125.25 25.398 170.45 70.605s70.605 106.52 70.605 170.45v120.65h58.406-0.003906c14.309 0.042969 28.02 5.7422 38.137 15.859 10.117 10.117 15.82 23.828 15.859 38.137zm-188-174.64c0-43.883-17.434-85.969-48.461-117-31.031-31.031-73.117-48.461-117-48.461s-85.969 17.43-117 48.461c-31.031 31.031-48.465 73.117-48.465 117v120.65h330.92zm-89.875 348.09c-0.003907-18.125-6.5195-35.641-18.355-49.363-11.836-13.719-28.207-22.734-46.133-25.395-17.922-2.6641-36.207 1.1992-51.523 10.887-15.312 9.6914-26.637 24.555-31.91 41.895-5.2734 17.336-4.1406 35.992 3.1875 52.562 7.3281 16.574 20.367 29.965 36.742 37.73v126.09c0 11.578 6.1719 22.273 16.199 28.059 10.023 5.7891 22.371 5.7891 32.395 0 10.027-5.7852 16.199-16.48 16.199-28.059v-126.09c12.93-6.1289 23.852-15.805 31.5-27.898 7.6484-12.094 11.703-26.109 11.699-40.418z"/>
</svg>
