<?xml version="1.0" encoding="UTF-8"?><svg id="White_Icon" xmlns="http://www.w3.org/2000/svg" viewBox="0 0 170 170"><path d="m77.4,10.45l-4.9,3.5.7,32.6c.4,17.9.8,32.7,1,32.9.2.3,73.3-25.6,75.1-26.6.8-.5-.4-1.8-3.7-4.1l-4.9-3.3-28.2,10c-15.5,5.6-28.3,10-28.4,9.9-.1-.1-.6-13.3-1.1-29.3l-.8-29s-4.8,3.4-4.8,3.4Zm-16,11.5l-4.9,3.2.5,27.7c.4,21.6.2,27.8-.7,27.8-.7,0-12.9-3.4-27.1-7.5-14.2-4.1-26-7.3-26.3-7.1-.2.3.4,2.7,1.3,5.5,1.6,5,1.7,5.1,8.3,7,33.7,10,54.7,16,54.9,15.7.2-.2,0-17.2-.4-37.9l-.8-37.7s-4.8,3.3-4.8,3.3Zm83.3,39.6l-31.2,11-20.7,7.3,12,15.4,24,31.1c4.25,5.58,8.55,11.11,12.9,16.6.4.5,1.7-1.9,2.8-5.2l2.1-6.1-17.7-22.6c-9.7-12.4-17.7-23-17.7-23.6,0-.5,12.5-5.3,27.7-10.6,15.3-5.4,27.8-10,27.8-10.3,0-1-8.8-6.9-10.2-6.8-.7,0-6,1.7-11.8,3.8h0ZM8.7,84.45l1.6,5.7,1.6,5.1,27.6,8.2c15.2,4.6,27.8,8.4,28,8.6.2.3-7.1,11.1-16.2,24-9.2,13-16.9,24.3-17.2,25.1-.5,1.2.5,1.5,5.2,1.5l5.9-.1,19-27c6.68-9.26,13.11-18.7,19.3-28.3.2-.7-13.6-5.2-37.3-12.2-12.41-3.86-24.91-7.39-37.5-10.6Zm68.9,42.9c-7.43,10.76-14.99,21.43-22.7,32l-2.4,3.3h12.8l16.4-23.4c5.47-8,11.17-15.83,17.1-23.5.3-.1,8.8,10.6,18.9,23.6l18.4,23.8,1.9-6.1,2-6-20.4-26.2c-6.69-8.98-13.7-17.71-21-26.2-.4,0-9.9,12.9-21,28.7h0Z" style="fill:#fff;"/></svg>