<?xml version="1.0" encoding="UTF-8"?><svg id="White" xmlns="http://www.w3.org/2000/svg" viewBox="0 0 579 160"><path d="m76.7,5.8l-4.9,3.5.7,32.6c.4,17.9.8,32.7,1,32.9.2.3,73.3-25.6,75.1-26.6.8-.5-.4-1.8-3.7-4.1l-4.9-3.3-28.2,10c-15.5,5.6-28.3,10-28.4,9.9-.1-.1-.6-13.3-1.1-29.3l-.8-29s-4.8,3.4-4.8,3.4Zm-16,11.5l-4.9,3.2.5,27.7c.4,21.6.2,27.8-.7,27.8-.7,0-12.9-3.4-27.1-7.5-14.2-4.1-26-7.3-26.3-7.1-.2.3.4,2.7,1.3,5.5,1.6,5,1.7,5.1,8.3,7,33.7,10,54.7,16,54.9,15.7.2-.2,0-17.2-.4-37.9l-.8-37.7s-4.8,3.3-4.8,3.3Zm465.7,22.1c-25.1,5.46-41.02,30.22-35.56,55.32,1.25,5.75,3.58,11.2,6.86,16.08,6.9,10.1,18.7,16.2,33.9,17.7,12.24,1.43,24.53-2.22,34-10.1,3.7-3,4.4-4.2,4.4-7.1v-3.5l-6.2,5.6c-6.2,6.33-14.74,9.8-23.6,9.6-17.2,0-26.5-12-27.9-36.1-1.6-27.2,11-44.3,31.3-42.6,10.7.8,20.3,8.3,24,18.8,1,2.7,2.2,4.9,2.6,4.9s.8-6.8.8-15c0-9.3-.4-15-1-15-.5,0-1,.6-1,1.3,0,2-3.3,4.7-5.6,4.7-1,0-5.4-1.1-9.7-2.5-8.75-3.11-18.17-3.83-27.3-2.1Zm-338.4,1.6c0,.5,1.5,1,3.4,1s4.5.9,6,2.1l2.6,2v74.8l-2.6,2c-1.75,1.28-3.84,2.01-6,2.1-1.9,0-3.4.4-3.4,1s8.2,1,22.5,1,22.5-.4,22.5-1-1.5-1-3.4-1-4.5-.9-6-2.1l-2.6-2v-35.9h3.8c9.04.18,16.48,7.18,17.2,16.2,0,1.5.5,3,1,3.3.7.4,1-7.4,1-22.6.28-7.48.01-14.96-.8-22.4-.4.6-1.4,3.2-2,5.9-2.3,9-7.7,13.6-16.1,13.6h-4.1v-33.2l11.8.4c10.2.3,12.3.6,16.2,2.8,4.6,2.6,8.2,8.1,9.5,14.2.3,1.6,1,2.8,1.5,2.8.6,0,1-5.2,1-13v-13h-36.5c-12.18-.48-24.37-.15-36.5,1Zm80,0c0,.5,1.5,1,3.4,1s4.5.9,6,2.1l2.6,2v74.8l-2.6,2c-1.75,1.28-3.84,2.01-6,2.1-1.9,0-3.4.4-3.4,1s8.2,1,22.5,1,22.5-.4,22.5-1-1.5-1-3.4-1-4.5-.9-6-2.1l-2.6-2v-35.9h3.8c9.04.18,16.48,7.18,17.2,16.2,0,1.5.5,3,1,3.3.7.4,1-7.4,1-22.6.28-7.48.01-14.96-.8-22.4-.4.6-1.4,3.2-2,5.9-2.3,9-7.7,13.6-16.1,13.6h-4.1v-33.2l11.8.4c10.2.3,12.3.6,16.2,2.8,4.6,2.6,8.2,8.1,9.5,14.2.3,1.6,1,2.8,1.5,2.8.6,0,1-5.2,1-13v-13h-36.5c-12.18-.48-24.37-.15-36.5,1Zm80,0c0,.5,1.6,1,3.5,1,2.5,0,4.4.8,6,2.5l2.5,2.4v73.2l-2.5,2.4c-1.53,1.68-3.73,2.59-6,2.5-1.9,0-3.5.4-3.5,1s8.2,1,22.5,1,22.5-.4,22.5-1-1.3-1-3-1c-3.7,0-7.7-1.8-8.7-3.9-.9-2.1-1.7-60.7-.8-68.9.8-7.6,3-10.2,8.7-10.2,2.1,0,3.8-.5,3.8-1,0-.6-8.2-1-22.5-1s-22.5.4-22.5,1Zm51,0c0,.5,1.6,1,3.5,1,2.5,0,4.4.8,6,2.5l2.5,2.4v73.2l-2.5,2.4c-1.53,1.68-3.73,2.59-6,2.5-1.9,0-3.5.5-3.5,1,0,.7,12.6.9,37.2.8l37.3-.3,1.7-11.5c.69-4.42,1.25-8.85,1.7-13.3.2-3.2-1.6-1.7-3.4,3-2.95,6.52-7.84,11.97-14,15.6-3,1.6-6.4,2.2-13.8,2.5-14.2.6-13.7,1.3-13.7-20.5v-17.3h3.3c6.9,0,12.8,6.6,14.3,15.9,1.5,9.4,2.4,2.7,2.4-17.9,0-12.1-.4-22-.8-22s-1.3,2.6-2,5.9c-1.9,8.9-7,14.1-14.2,14.1h-3v-35h9.3c5,0,10.9.5,12.9,1,7.26,2.52,12.65,8.68,14.2,16.2.3,1.6,1.1,2.8,1.6,2.8.6,0,1-5.2,1-13v-13h-36c-23.3,0-36,.4-36,1Zm-255,15.9l-31.2,11-20.7,7.3,12,15.4,24,31.1c4.25,5.58,8.55,11.11,12.9,16.6.4.5,1.7-1.9,2.8-5.2l2.1-6.1-17.7-22.6c-9.7-12.4-17.7-23-17.7-23.6,0-.5,12.5-5.3,27.7-10.6,15.3-5.4,27.8-10,27.8-10.3,0-1-8.8-6.9-10.2-6.8-.7,0-6,1.7-11.8,3.8h0ZM8,79.8l1.6,5.7,1.6,5.1,27.6,8.2c15.2,4.6,27.8,8.4,28,8.6.2.3-7.1,11.1-16.2,24-9.2,13-16.9,24.3-17.2,25.1-.5,1.2.5,1.5,5.2,1.5l5.9-.1,19-27c6.68-9.26,13.11-18.7,19.3-28.3.2-.7-13.6-5.2-37.3-12.2-12.41-3.86-24.91-7.39-37.5-10.6Zm68.9,42.9c-7.43,10.76-14.99,21.43-22.7,32l-2.4,3.3h12.8l16.4-23.4c5.47-8,11.17-15.83,17.1-23.5.3-.1,8.8,10.6,18.9,23.6l18.4,23.8,1.9-6.1,2-6-20.4-26.2c-6.69-8.98-13.7-17.71-21-26.2-.4,0-9.9,12.9-21,28.7h0Z" style="fill:#fff;"/></svg>