<svg xmlns="http://www.w3.org/2000/svg" viewBox="0 0 44 44"><title>Print page</title><g id="Layer_2" data-name="Layer 2"><g id="Electronics"><g id="Printer_2x.png" data-name="Printer@2x.png"><path d="M36,18a2,2,0,1,0,2,2A2,2,0,0,0,36,18Zm2-6H36V2a2,2,0,0,0-2-2H10A2,2,0,0,0,8,2V12H6a6,6,0,0,0-6,6V34a6,6,0,0,0,6,6H8v2a2,2,0,0,0,2,2H34a2,2,0,0,0,2-2V40h2a6,6,0,0,0,6-6V18A6,6,0,0,0,38,12ZM10,2H34V12H10ZM34,40v2H10V30H34Zm8-6a4,4,0,0,1-4,4H36V30a2,2,0,0,0-2-2H10a2,2,0,0,0-2,2v8H6a4,4,0,0,1-4-4V18a4,4,0,0,1,4-4H38a4,4,0,0,1,4,4ZM15,34H25a1,1,0,0,0,0-2H15a1,1,0,0,0,0,2ZM30,18a2,2,0,1,0,2,2A2,2,0,0,0,30,18ZM15,38H29a1,1,0,0,0,0-2H15a1,1,0,0,0,0,2Z"/></g></g></g></svg>